<svg width="240" height="240" viewBox="0 0 240 240" fill="none" xmlns="http://www.w3.org/2000/svg">
  <rect width="240" height="240" rx="40" fill="#F0EAFE"/>
  <circle cx="88" cy="83" r="34" fill="#D8CCFF"/>
  <circle cx="88" cy="77" r="18" fill="#F7D9C8"/>
  <path d="M62 168c4-34 16-52 26-52s26 18 30 52H62Z" fill="#7C4DFF"/>
  <path d="M70 70c5-16 31-19 39 2-9-2-18-3-39-2Z" fill="#46415B"/>
  <rect x="132" y="76" width="58" height="82" rx="18" fill="white" stroke="#C8B6FF" stroke-width="4"/>
  <path d="M161 98v38" stroke="#7C4DFF" stroke-width="7" stroke-linecap="round"/>
  <path d="M142 117h38" stroke="#7C4DFF" stroke-width="7" stroke-linecap="round"/>
  <circle cx="161" cy="174" r="17" fill="#E7F8EF"/>
  <path d="M153 174l6 6 11-13" stroke="#10B981" stroke-width="5" stroke-linecap="round" stroke-linejoin="round"/>
  <path d="M39 187c30 19 112 29 162-4" stroke="#C8B6FF" stroke-width="8" stroke-linecap="round"/>
</svg>
